<svg width="24" height="24" viewBox="0 0 24 24" fill="none" xmlns="http://www.w3.org/2000/svg">
<g id="uiw:dislike-o" clip-path="url(#clip0_232_692)">
<path id="Vector" fill-rule="evenodd" clip-rule="evenodd" d="M18.9685 1.12661C19.4437 1.56701 19.7545 2.48621 19.8157 3.04061C20.5237 3.47981 21.3613 4.36541 21.4345 6.03341C22.6981 6.91061 23.6581 8.53301 22.4593 10.9054C23.1553 11.5534 23.9317 13.531 22.9333 15.1246C21.7705 16.987 19.2433 17.1166 16.7245 16.7842C17.3965 18.6622 17.6485 20.395 16.5853 22.1698C15.5281 23.7442 14.0689 23.9998 13.5697 23.9998C12.2041 23.9998 11.2681 22.825 10.8889 21.2602C10.7509 20.8234 10.5937 19.7914 10.5325 19.5202C10.2145 17.7922 9.1453 16.4098 7.3285 15.3766C6.52022 14.9123 5.66658 14.532 4.7809 14.2414H1.9729C1.3477 14.2414 0.600098 13.609 0.600098 12.8434V3.68021C0.688898 2.81381 1.1701 2.38181 2.0425 2.38181H5.7745C7.4113 2.00981 9.0433 1.61141 10.6693 1.18781C12.2401 0.76421 12.5845 0.62381 13.6837 0.32141C16.1473 -0.31699 17.8573 0.0346103 18.9685 1.12661ZM16.1101 1.63541C15.1273 1.63541 13.8829 1.93781 13.3309 2.11421C13.1365 2.17541 12.7957 2.27621 12.4369 2.37941L12.0769 2.48381L11.7313 2.58221L11.0593 2.77181C11.0593 2.77181 9.3673 3.22541 6.0517 3.99581C5.9281 4.01021 5.8621 4.01981 5.8525 4.02221V12.8782C7.6657 13.5766 9.0781 14.4238 10.0885 15.4198C11.6053 16.9126 12.0265 18.2614 12.2749 19.9882C12.4165 20.8558 12.6457 21.5554 12.9913 22.0342C13.0906 22.1777 13.2351 22.2837 13.4017 22.3354C13.5781 22.3918 13.8217 22.3954 14.3413 22.1146C14.8609 21.8314 15.5293 21.091 15.6553 19.9882C15.7393 18.9166 15.4513 17.9878 15.0649 17.011C14.9315 16.6782 14.7887 16.3493 14.6365 16.0246C14.3749 15.529 14.7685 14.7058 15.5797 14.8846C16.6669 15.1906 19.3645 15.6046 20.8861 14.8846C21.7705 14.3722 21.9901 13.5454 21.5425 12.4054C21.3945 12.1441 21.1919 11.9177 20.9485 11.7418C20.7445 11.6194 20.3461 11.089 20.8249 10.4878C21.3001 9.72581 21.9949 8.17421 20.2369 7.20701C20.1142 7.13958 20.0117 7.04065 19.94 6.92042C19.8683 6.80018 19.8299 6.663 19.8289 6.52301C19.8049 6.19421 19.8577 4.97501 18.9529 4.43021C18.7369 4.31381 18.4765 4.21781 18.3289 3.93821C18.2353 3.75341 18.2053 3.30461 18.2053 3.30461C18.0817 2.54621 17.9113 1.83821 16.1101 1.63541ZM4.2229 4.01741H2.2333V12.6058H4.2229V4.01741Z" fill="#131212"/>
</g>
<defs>
<clipPath id="clip0_232_692">
<rect width="24" height="24" fill="white"/>
</clipPath>
</defs>
</svg>
