<svg width="24" height="24" viewBox="0 0 24 24" fill="none" xmlns="http://www.w3.org/2000/svg">
<g id="uiw:dislike-o" clip-path="url(#clip0_232_688)">
<path id="Vector" fill-rule="evenodd" clip-rule="evenodd" d="M18.9685 22.8734C19.4437 22.433 19.7545 21.5138 19.8157 20.9594C20.5237 20.5202 21.3613 19.6346 21.4345 17.9666C22.6981 17.0894 23.6581 15.467 22.4593 13.0946C23.1553 12.4466 23.9317 10.469 22.9333 8.87539C21.7705 7.01299 19.2433 6.88339 16.7245 7.21579C17.3965 5.33779 17.6485 3.60499 16.5853 1.83019C15.5281 0.255787 14.0689 0.000188828 13.5697 0.000188828C12.2041 0.000188828 11.2681 1.17499 10.8889 2.73979C10.7509 3.17659 10.5937 4.20859 10.5325 4.47979C10.2145 6.20779 9.1453 7.59019 7.3285 8.62339C6.52022 9.08765 5.66658 9.46803 4.7809 9.75859H1.9729C1.3477 9.75859 0.600098 10.391 0.600098 11.1566L0.600098 20.3198C0.688898 21.1862 1.1701 21.6182 2.0425 21.6182H5.7745C7.4113 21.9902 9.0433 22.3886 10.6693 22.8122C12.2401 23.2358 12.5845 23.3762 13.6837 23.6786C16.1473 24.317 17.8573 23.9654 18.9685 22.8734ZM16.1101 22.3646C15.1273 22.3646 13.8829 22.0622 13.3309 21.8858C13.1365 21.8246 12.7957 21.7238 12.4369 21.6206L12.0769 21.5162L11.7313 21.4178L11.0593 21.2282C11.0593 21.2282 9.3673 20.7746 6.0517 20.0042C5.9281 19.9898 5.8621 19.9802 5.8525 19.9778L5.8525 11.1218C7.6657 10.4234 9.0781 9.57619 10.0885 8.58019C11.6053 7.08739 12.0265 5.73859 12.2749 4.01179C12.4165 3.14419 12.6457 2.44459 12.9913 1.96579C13.0906 1.82232 13.2351 1.71626 13.4017 1.66459C13.5781 1.60819 13.8217 1.60459 14.3413 1.88539C14.8609 2.16859 15.5293 2.90899 15.6553 4.01179C15.7393 5.08339 15.4513 6.01219 15.0649 6.98899C14.9315 7.3218 14.7887 7.65073 14.6365 7.97539C14.3749 8.47099 14.7685 9.29419 15.5797 9.11539C16.6669 8.80939 19.3645 8.39539 20.8861 9.11539C21.7705 9.62779 21.9901 10.4546 21.5425 11.5946C21.3945 11.8559 21.1919 12.0823 20.9485 12.2582C20.7445 12.3806 20.3461 12.911 20.8249 13.5122C21.3001 14.2742 21.9949 15.8258 20.2369 16.793C20.1142 16.8604 20.0117 16.9594 19.94 17.0796C19.8683 17.1998 19.8299 17.337 19.8289 17.477C19.8049 17.8058 19.8577 19.025 18.9529 19.5698C18.7369 19.6862 18.4765 19.7822 18.3289 20.0618C18.2353 20.2466 18.2053 20.6954 18.2053 20.6954C18.0817 21.4538 17.9113 22.1618 16.1101 22.3646ZM4.2229 19.9826H2.2333L2.2333 11.3942H4.2229L4.2229 19.9826Z" fill="#131212"/>
</g>
<defs>
<clipPath id="clip0_232_688">
<rect width="24" height="24" fill="white" transform="matrix(1 0 0 -1 0 24)"/>
</clipPath>
</defs>
</svg>
