<svg width="24" height="24" viewBox="0 0 24 24" fill="none" xmlns="http://www.w3.org/2000/svg">
<g id="bi:twitter">
<path id="Vector" d="M7.539 22.501C16.596 22.501 21.5505 14.9965 21.5505 8.50004C21.5505 8.29004 21.5505 8.07704 21.5415 7.86704C22.5061 7.16877 23.3386 6.30427 24 5.31404C23.099 5.71132 22.1441 5.97315 21.1665 6.09104C22.1963 5.4755 22.9676 4.50699 23.337 3.36554C22.3695 3.93873 21.3105 4.3411 20.2065 4.55504C19.4643 3.76458 18.4821 3.24092 17.4121 3.06518C16.3421 2.88944 15.2441 3.07142 14.288 3.58295C13.3319 4.09447 12.5712 4.90698 12.1237 5.89463C11.6761 6.88228 11.5668 7.98994 11.8125 9.04604C9.85461 8.94787 7.93922 8.43924 6.19056 7.55315C4.4419 6.66707 2.89903 5.42331 1.662 3.90254C1.03401 4.98716 0.842361 6.27014 1.12597 7.49094C1.40958 8.71174 2.14718 9.77883 3.189 10.4755C2.40831 10.449 1.64478 10.2394 0.96 9.86354V9.93104C0.961346 11.0673 1.35496 12.1682 2.07431 13.0477C2.79366 13.9272 3.79462 14.5314 4.908 14.758C4.48539 14.8745 4.04884 14.9325 3.6105 14.9305C3.30148 14.9315 2.99307 14.9028 2.6895 14.845C3.00418 15.8231 3.61691 16.6783 4.44187 17.2908C5.26683 17.9032 6.2627 18.2423 7.29 18.2605C5.54483 19.6312 3.3891 20.3746 1.17 20.371C0.778981 20.3727 0.388235 20.3501 0 20.3035C2.25227 21.7394 4.86795 22.5019 7.539 22.501Z" fill="#131212"/>
</g>
</svg>
